<?xml version="1.0" standalone="no"?>
<!DOCTYPE svg PUBLIC "-//W3C//DTD SVG 20010904//EN"
 "http://www.w3.org/TR/2001/REC-SVG-20010904/DTD/svg10.dtd">
<svg version="1.0" xmlns="http://www.w3.org/2000/svg"
 width="500.000000pt" height="500.000000pt" viewBox="0 0 500.000000 500.000000"
 preserveAspectRatio="xMidYMid meet">

<g transform="translate(0.000000,500.000000) scale(0.100000,-0.100000)"
fill="#000000" stroke="none">
<path d="M2586 4068 c-7 -35 -34 -243 -31 -245 1 -2 16 -6 33 -9 30 -6 32 -5
32 22 0 41 11 53 42 47 19 -4 31 -15 42 -43 12 -29 22 -40 46 -45 17 -4 34 -5
36 -2 3 3 -4 23 -15 45 l-21 41 30 30 c23 23 30 39 30 68 0 67 -38 92 -167
108 -49 6 -52 5 -57 -17z m152 -62 c21 -21 8 -64 -23 -72 -14 -3 -36 -3 -50 0
-19 5 -25 13 -25 35 0 53 9 64 48 57 20 -3 42 -12 50 -20z"/>
<path d="M2079 3951 c-72 -72 -6 -196 95 -177 34 7 86 40 86 56 0 16 -32 20
-53 5 -26 -18 -59 -19 -75 -3 -20 20 -15 24 54 38 36 8 68 19 71 26 6 17 -23
70 -42 78 -9 3 -37 6 -62 6 -36 0 -50 -6 -74 -29z m108 -26 c7 -21 2 -25 -41
-32 -27 -4 -36 -2 -36 9 0 35 64 54 77 23z"/>
<path d="M2861 3934 c-65 -55 -47 -149 35 -180 51 -19 97 -12 92 14 -2 12 -15
18 -40 20 -25 2 -43 11 -53 25 -23 33 -5 38 64 15 69 -22 81 -18 81 30 0 86
-111 134 -179 76z m100 -24 c10 -6 19 -20 19 -31 0 -18 -4 -20 -32 -14 -46 10
-57 23 -34 41 24 17 22 17 47 4z"/>
<path d="M1947 3924 c-15 -8 -27 -16 -27 -18 0 -2 12 -29 26 -59 29 -65 22
-97 -22 -97 -22 0 -29 9 -51 60 -26 60 -41 70 -72 51 -12 -8 -11 -19 10 -71
44 -113 92 -138 151 -79 21 21 33 27 38 19 6 -9 13 -9 31 0 13 7 25 14 27 15
2 2 -37 94 -71 166 -12 26 -14 26 -40 13z"/>
<path d="M1683 3873 c-29 -19 -29 -27 3 -130 14 -46 23 -87 20 -90 -2 -3 -40
20 -83 51 -42 31 -83 56 -89 56 -7 0 -21 -8 -33 -17 -21 -18 -21 -19 90 -93
61 -41 117 -78 123 -82 7 -4 24 3 39 15 l26 22 -29 120 c-16 66 -30 128 -30
137 0 24 -12 28 -37 11z"/>
<path d="M3100 3860 c0 -13 9 -22 28 -26 32 -8 62 -32 62 -51 0 -18 -9 -17
-64 8 -44 19 -49 19 -71 5 -14 -9 -28 -28 -31 -43 -6 -22 -1 -32 25 -55 17
-15 40 -28 51 -28 11 0 29 -9 40 -20 11 -11 26 -20 33 -20 17 0 77 124 77 159
0 33 -25 58 -77 77 -54 19 -73 18 -73 -6z m58 -132 c-3 -7 -12 -16 -21 -22
-25 -16 -66 26 -48 48 12 14 16 14 43 0 16 -8 28 -20 26 -26z"/>
<path d="M2384 3855 c-4 -9 0 -23 9 -32 21 -21 49 -9 45 19 -4 28 -45 38 -54
13z"/>
<path d="M3282 3734 c-34 -24 -55 -71 -48 -110 10 -52 88 -107 131 -90 24 9 3
50 -30 56 -40 7 -54 33 -35 68 22 39 75 44 92 8 7 -17 19 -26 35 -26 35 0 29
37 -13 76 -40 38 -93 46 -132 18z"/>
<path d="M3535 3650 c-9 -10 -27 -18 -39 -17 -15 1 -21 -3 -19 -18 1 -11 -16
-39 -38 -62 -26 -29 -39 -52 -39 -71 0 -31 36 -72 63 -72 19 0 23 30 6 47 -9
9 -6 19 9 41 36 50 50 57 72 37 32 -29 55 2 25 35 -14 15 -14 18 0 30 20 17
19 33 -3 54 -18 15 -20 15 -37 -4z"/>
<path d="M1511 3452 c-12 -22 3 -42 30 -42 22 0 33 28 18 46 -16 19 -36 17
-48 -4z"/>
<path d="M1264 3385 c-31 -21 -57 -81 -49 -114 7 -35 50 -76 88 -85 40 -9 90
18 115 63 23 41 28 66 13 75 -16 10 -41 -5 -41 -25 0 -23 -34 -59 -55 -59 -23
0 -18 15 22 76 36 54 37 57 18 70 -25 18 -85 18 -111 -1z m66 -41 c0 -12 -42
-74 -50 -74 -8 0 -20 24 -20 40 0 16 31 40 51 40 10 0 19 -3 19 -6z"/>
<path d="M3540 3324 c-11 -12 -10 -18 3 -31 21 -21 47 -9 47 22 0 29 -29 35
-50 9z"/>
<path d="M3755 3244 c-60 -30 -114 -55 -120 -57 -6 -2 -5 -14 3 -31 10 -23 17
-27 35 -21 24 8 86 9 94 2 2 -3 -10 -28 -28 -57 -27 -43 -30 -56 -23 -82 5
-17 14 -33 20 -35 6 -2 31 30 54 72 47 81 52 84 120 60 66 -23 74 -21 55 16
-9 16 -21 32 -28 34 -7 2 -41 12 -77 23 l-65 19 53 26 c28 15 52 31 52 36 0 5
-8 18 -17 29 -18 20 -19 20 -128 -34z"/>
<path d="M1067 3223 l-15 -27 124 -63 c68 -35 128 -63 132 -63 5 0 14 11 20
24 8 18 8 27 -1 34 -12 9 -237 122 -243 122 -2 0 -10 -12 -17 -27z"/>
<path d="M995 3110 c-3 -5 -3 -19 0 -31 10 -31 60 -23 60 11 0 20 -6 26 -27
28 -14 2 -29 -2 -33 -8z"/>
<path d="M1084 3065 c-4 -14 -5 -28 -3 -29 14 -14 185 -74 191 -68 4 4 9 18
10 30 3 20 -7 27 -85 58 -49 18 -93 34 -98 34 -5 0 -11 -11 -15 -25z"/>
<path d="M3801 2964 c-13 -9 -29 -32 -37 -50 -12 -29 -12 -39 4 -81 23 -62 72
-91 127 -73 19 6 44 23 55 37 36 46 19 147 -29 173 -30 15 -94 12 -120 -6z
m107 -56 c17 -17 15 -54 -4 -72 -18 -19 -65 -21 -82 -4 -18 18 -15 65 6 77 23
14 65 14 80 -1z"/>
<path d="M1063 2952 c-28 -21 -43 -69 -32 -100 9 -25 10 -24 -49 -13 -41 8
-44 7 -53 -17 -12 -32 -5 -38 56 -50 28 -6 86 -19 130 -30 44 -11 83 -19 86
-16 12 7 16 53 5 57 -7 3 -4 12 7 24 10 11 20 37 24 56 5 32 1 41 -30 72 -29
29 -42 35 -78 35 -26 0 -53 -8 -66 -18z m107 -67 c20 -22 22 -28 12 -50 -11
-23 -17 -26 -54 -23 -36 3 -44 7 -52 30 -8 22 -6 32 9 48 24 27 57 25 85 -5z"/>
<path d="M3950 2736 c0 -9 -18 -16 -52 -20 -70 -9 -98 -28 -98 -67 0 -46 17
-71 40 -59 11 6 16 17 13 29 -4 16 3 22 34 30 54 15 73 14 73 -6 0 -28 15 -44
33 -37 12 4 15 13 11 30 -5 21 -2 25 25 30 26 6 31 11 31 35 0 26 -3 29 -35
29 -19 0 -35 5 -35 10 0 6 -9 10 -20 10 -11 0 -20 -6 -20 -14z"/>
<path d="M1045 2701 c-53 -22 -80 -101 -55 -161 31 -75 155 -79 188 -5 25 55
9 133 -32 153 -32 16 -79 22 -101 13z m83 -73 c22 -22 14 -67 -14 -80 -50 -23
-107 37 -74 78 15 17 71 19 88 2z"/>
<path d="M3853 2553 c-40 -4 -43 -6 -43 -34 l0 -29 145 0 145 0 0 35 0 35
-102 -2 c-57 -1 -122 -3 -145 -5z"/>
<path d="M1069 2445 c-155 -22 -159 -23 -159 -49 0 -37 21 -54 90 -71 102 -26
102 -27 19 -80 -41 -26 -75 -49 -77 -50 -1 -1 1 -16 4 -33 6 -29 10 -32 43
-31 20 0 81 8 136 17 l100 17 -3 29 c-3 26 -6 28 -35 21 -50 -10 -137 -18
-137 -12 0 2 29 22 65 43 35 22 65 44 65 49 0 29 -29 44 -123 62 -15 3 -29 9
-32 13 -5 9 17 14 95 25 25 3 50 9 57 13 15 9 6 52 -11 51 -6 -1 -50 -7 -97
-14z"/>
<path d="M3806 2414 c-4 -14 -5 -28 -3 -30 3 -3 169 -24 193 -24 7 0 14 13 16
30 5 34 4 34 -128 45 -71 6 -72 6 -78 -21z"/>
<path d="M4057 2414 c-15 -15 -7 -52 12 -57 27 -7 43 7 39 34 -3 24 -36 38
-51 23z"/>
<path d="M3800 2326 c0 -6 -3 -20 -6 -31 -5 -18 2 -22 54 -33 66 -14 85 -29
80 -64 -2 -19 -10 -24 -40 -26 -21 -2 -54 1 -75 7 -43 12 -39 13 -48 -20 -6
-23 -3 -28 27 -38 18 -7 58 -14 89 -18 50 -5 59 -3 79 17 19 19 22 30 18 71
-3 29 -1 47 5 46 15 -3 28 53 14 58 -7 3 -54 13 -104 23 -63 13 -93 16 -93 8z"/>
<path d="M1150 2024 c-40 -27 -50 -45 -50 -90 0 -34 5 -47 27 -63 30 -24 31
-22 -24 -50 -40 -20 -42 -23 -31 -46 6 -14 15 -25 19 -25 4 0 40 15 81 34 40
18 97 44 126 56 28 12 52 24 52 26 0 15 -26 54 -36 54 -7 0 -10 8 -7 19 6 24
-21 77 -46 91 -29 15 -83 12 -111 -6z m101 -63 c23 -19 23 -21 9 -48 -9 -15
-28 -32 -43 -37 -59 -21 -92 70 -34 94 33 13 43 12 68 -9z"/>
<path d="M3710 2005 c-18 -21 -5 -47 22 -43 26 3 37 36 16 49 -18 12 -24 11
-38 -6z"/>
<path d="M3628 1840 l-16 -29 39 -25 c21 -15 39 -30 39 -34 0 -4 -13 -27 -30
-51 -22 -34 -26 -48 -18 -58 18 -22 32 -15 61 32 31 48 37 51 68 35 26 -14 24
-24 -13 -77 -30 -45 -31 -70 -1 -80 10 -4 113 146 113 163 0 5 -37 33 -83 61
-45 29 -96 61 -112 72 l-30 20 -17 -29z"/>
<path d="M1337 1813 c-13 -12 -7 -43 8 -43 22 0 48 -45 40 -70 -9 -27 -24 -15
-67 51 -26 41 -34 47 -50 38 -27 -15 -52 -72 -44 -102 9 -39 52 -84 86 -91 39
-7 92 14 114 45 34 49 10 135 -46 165 -27 15 -32 16 -41 7z m3 -155 c0 -4 -11
-8 -25 -8 -33 0 -55 41 -35 65 11 13 16 11 36 -17 13 -17 24 -36 24 -40z"/>
<path d="M3496 1658 c-13 -18 -13 -25 -3 -33 6 -6 46 -40 87 -75 41 -35 84
-72 96 -82 20 -18 21 -17 43 6 l22 24 -107 91 c-59 50 -111 91 -115 91 -4 0
-15 -10 -23 -22z"/>
<path d="M1415 1557 c-150 -85 -139 -76 -119 -98 9 -10 22 -19 27 -19 6 0 46
23 89 50 43 28 81 50 83 50 3 0 -15 -41 -41 -91 l-46 -92 24 -23 23 -23 84 55
c46 30 85 53 87 51 3 -2 -16 -43 -41 -89 l-45 -86 21 -27 c12 -14 25 -23 29
-18 14 14 110 234 110 252 0 9 -9 24 -20 34 -20 16 -23 15 -101 -33 -44 -27
-82 -50 -85 -50 -2 0 15 38 38 85 l42 85 -24 25 -25 24 -110 -62z"/>
<path d="M3407 1560 c-14 -11 -27 -30 -29 -43 -2 -15 -10 -22 -27 -22 -13 0
-28 -7 -34 -16 -8 -14 3 -31 58 -93 l69 -76 23 22 23 22 -34 35 c-52 55 -61
79 -40 102 9 10 22 19 28 19 7 0 34 -22 61 -50 46 -47 50 -49 67 -33 10 9 18
21 18 27 0 6 -25 37 -55 69 -60 63 -85 70 -128 37z"/>
<path d="M3194 1396 c-28 -24 -28 -26 -12 -42 14 -14 21 -15 30 -6 19 19 25
15 58 -33 30 -43 30 -44 10 -55 -21 -11 -27 -35 -10 -45 5 -3 19 0 30 7 18 11
23 10 40 -12 18 -24 19 -24 40 -5 13 12 18 25 14 34 -4 9 -7 30 -8 46 -1 22
-6 30 -19 30 -9 0 -34 23 -55 50 -45 60 -76 68 -118 31z"/>
<path d="M1817 1262 l-78 -78 27 -13 c26 -11 30 -9 82 41 l54 53 -6 -55 c-4
-30 -9 -64 -12 -76 -4 -15 2 -23 20 -32 35 -16 42 1 49 116 l6 92 -29 15 c-16
8 -30 15 -32 15 -2 0 -38 -35 -81 -78z"/>
<path d="M3058 1322 c-16 -9 -28 -22 -28 -28 0 -20 24 -34 40 -24 23 15 27 13
50 -31 23 -44 21 -69 -5 -69 -10 0 -15 -7 -13 -17 2 -13 13 -18 35 -18 20 0
37 -7 46 -19 11 -16 17 -17 36 -7 18 10 21 18 15 47 -4 22 -2 34 5 34 8 0 8 5
-1 19 -6 10 -17 17 -24 14 -8 -3 -23 16 -38 46 -37 71 -67 85 -118 53z"/>
<path d="M2893 1255 c-32 -13 -58 -47 -46 -59 12 -11 40 -6 53 10 8 9 25 14
43 12 53 -5 41 -25 -27 -48 -75 -25 -83 -41 -38 -82 38 -36 64 -41 111 -22 66
26 90 94 54 154 -29 49 -87 63 -150 35z m107 -109 c0 -23 -30 -47 -54 -44 -32
5 -32 34 1 46 40 15 53 14 53 -2z"/>
<path d="M2041 1251 c-25 -16 -4 -41 33 -41 35 0 66 -21 66 -45 0 -10 -13 -9
-62 6 -35 10 -69 19 -75 19 -19 0 -16 -81 2 -107 21 -31 87 -47 129 -33 58 19
86 107 50 159 -28 40 -109 64 -143 42z m83 -131 c14 -14 -3 -30 -33 -30 -29 0
-51 16 -51 38 0 11 9 13 38 7 20 -3 41 -10 46 -15z"/>
<path d="M2757 1223 c-17 -4 -18 -12 -12 -73 7 -67 6 -69 -22 -86 -15 -10 -29
-18 -30 -19 -1 0 0 -11 4 -23 7 -28 20 -28 50 0 17 16 23 18 23 6 0 -11 8 -13
30 -10 35 5 34 2 15 107 -8 44 -14 86 -15 93 0 12 -10 13 -43 5z"/>
<path d="M2272 1180 c-78 -48 -82 -175 -7 -224 26 -17 180 -45 190 -34 10 10
30 257 21 265 -4 4 -44 9 -89 11 -69 3 -87 0 -115 -18z m138 -84 c0 -29 -3
-68 -6 -85 -6 -27 -11 -31 -39 -31 -51 0 -85 33 -85 83 0 57 29 87 87 87 l43
0 0 -54z"/>
<path d="M2515 1180 c-8 -26 6 -43 31 -38 13 2 19 12 19 28 0 34 -40 41 -50
10z"/>
</g>
</svg>
